<svg width="220" height="140" xmlns="http://www.w3.org/2000/svg">
  <g fill-rule="nonzero" fill="none">
    <g fill="#00B2B9">
      <path d="M31 87.5c1.3 0 2.8.5 3.7 1.4l.1.1 1.3-1.2-.2-.2c-1.4-1.2-3.2-1.9-5-1.9-3.4 0-6.1 2.6-6.1 5.9 0 3.3 2.7 5.9 6.2 5.9 1.7 0 3.6-.6 5-1.7l.1-.1V91h-5.2v1.7h3.5v2.2c-.8.6-2 .9-3.2.9-2.8 0-4.3-2.1-4.3-4.1-.1-2.4 1.7-4.2 4.1-4.2ZM49.4 89.5c0-.9-.3-1.6-.9-2.3-.7-.8-1.8-1.2-3.2-1.2h-6.1v11.2h1.9v-4.4h4l2.5 4.4h2.1L47 92.6c1.5-.5 2.4-1.7 2.4-3.1Zm-3.7 1.7h-4.6v-3.4h4.3c.8 0 1.3.2 1.7.6.3.3.4.7.4 1.1.1.9-.7 1.7-1.8 1.7ZM56.2 86.1 51 97.3h2l1.4-3.2h5.1l1.5 3.2h2.1l-5.2-11.2h-1.7Zm-1 6.3 1.8-4 1.8 4h-3.6ZM73 93.9l-6.5-7.8h-1.6v11.2h1.9v-7.9l6.5 7.9h1.6V86.1H73zM83.4 86.1h-5v11.2h5c2.1 0 3.1-.6 4.2-1.5 1-1 1.6-2.5 1.6-4.1 0-1.6-.6-3-1.6-4-1.2-1.2-2.4-1.6-4.2-1.6Zm2.7 8.5c-.7.6-1.3 1-2.8 1h-3.1v-7.7h3.1c1.4 0 2.1.4 2.8 1 .7.7 1.1 1.7 1.1 2.8 0 1.1-.4 2.2-1.1 2.9ZM104.5 86.1l-3.9 8.7-3.9-8.7h-2.1l5.1 11.2h1.7l5.2-11.2zM110.8 86.1l-5.2 11.2h2l1.4-3.2h5.1l1.5 3.2h2.1l-5.2-11.2h-1.7Zm-1 6.3 1.8-4 1.8 4h-3.6ZM128.3 94.1c-1.1 1.1-2.5 1.7-4 1.7-2.4 0-4.2-1.8-4.2-4.1 0-2.4 1.8-4.2 4.1-4.2 1.4 0 2.8.6 3.8 1.5l.2.1 1.3-1.3-.2-.2c-1.3-1.2-3.2-1.9-5.1-1.9-3.4 0-6.1 2.6-6.1 5.9 0 3.3 2.6 5.9 6.1 5.9 2.7 0 4.5-1.4 5.3-2.2l.2-.2-1.3-1.3-.1.3ZM135.7 86.1l-5.2 11.2h2l1.4-3.2h5.1l1.5 3.2h2.1l-5.2-11.2h-1.7Zm-1 6.3 1.8-4 1.8 4h-3.6ZM141.4 87.8h4.2v9.5h1.9v-9.5h4.1v-1.7h-10.2zM153.5 86.1h1.9v11.2h-1.9zM163.9 85.8c-3.5 0-6.2 2.6-6.2 5.8 0 3.3 2.7 5.9 6.2 5.9 3.4 0 6.2-2.6 6.2-5.9 0-3.2-2.8-5.8-6.2-5.8Zm0 10c-2.4 0-4.2-1.8-4.2-4.2 0-2.3 1.9-4.1 4.2-4.1 2.3 0 4.3 1.9 4.3 4.1-.1 2.4-1.9 4.2-4.3 4.2ZM180.9 93.9l-6.5-7.8h-1.6v11.2h1.9v-7.9l6.5 7.9h1.6V86.1h-1.9zM191 90.4h-.2c-1.9-.1-3.2-.3-3.2-1.3 0-1.2 1.3-1.6 2.6-1.6 2.2 0 3.5 1 3.8 1.3l.2.2 1.2-1.3-.2-.1c-.9-.8-2.7-1.6-4.9-1.6s-4.5.9-4.5 3.4c0 2.7 2.9 2.9 5.1 3 2.1.2 3.3.5 3.3 1.8 0 1.4-1.6 1.9-3.1 1.9-2.3 0-3.8-1.1-4.6-1.9l-.2-.2-1.2 1.3.2.1c1.7 1.5 3.6 2.3 5.8 2.3 3.1 0 5-1.4 5-3.7-.1-3.2-3.2-3.5-5.1-3.6Z"/>
    </g>
    <g fill="#00567B">
      <path d="M88.7 53.3H81v1.4l2 .3v18.6l-2 .3v1.4h9.6v-1.4l-1.9-.3zM66.4 45.9l2.3.3v11.6H55.3V46.2l2-.3v-1.6H47v1.6l2.1.3v27.2l-2.1.3v1.6h10.3v-1.6l-2-.3V61h13.4v12.4l-2.3.3v1.6h10.5v-1.6l-2.1-.3V46.2l2.1-.3v-1.6H66.4zM102.5 43.4h-7.7v1.4l1.9.3v28.5l-1.9.3v1.4h9.7v-1.4l-2-.3zM86 49.9c1.9 0 3.3-1.6 3.3-3.6 0-1.8-1.4-3.4-3.3-3.4-2 0-3.3 1.6-3.3 3.5 0 2.1 1.4 3.5 3.3 3.5ZM116.2 68.4V55.3h5.2v-2.1h-5.2V47l-5.6 1.7v4.6h-4.2v2.1h4v14.4c0 3.9 1 5.9 5.4 5.9 2 0 4.3-.4 7.1-1.4v-1.5c-.9.2-1.9.2-3.1.2-2.9-.1-3.6-1.2-3.6-4.6ZM171.8 73.6V60.4c0-5-1.9-7.5-6.3-7.5-3.2 0-5.5 1.6-7.9 3.5v-3.1H150v1.5l2 .3v18.5l-2 .3v1.4h9.7v-1.4l-2-.3V57.9c1.4-1 3.3-1.8 4.6-1.8 2.6 0 3.9 1.5 3.9 5v12.5l-1.9.3v1.4h9.6v-1.4l-2.1-.3ZM135.6 52.7c-7.2 0-11.8 4.7-11.8 11.8 0 8.5 4.5 11.5 11.5 11.5 7.2 0 11.8-4.6 11.8-11.5 0-7.6-4.3-11.8-11.5-11.8Zm-.2 21.6c-3.2 0-5.3-2.9-5.3-9.9 0-7.1 2.1-10 5.3-10 3.3 0 5.4 3.1 5.4 10 0 7.1-1.9 9.9-5.4 9.9Z"/>
    </g>
  </g>
</svg>