<svg width="220" height="140" xmlns="http://www.w3.org/2000/svg">
  <g fill="#4E5C74" fill-rule="nonzero">
    <path d="M179.4 51.5h-7.6v18.4h7.6c4 0 6.9-3.8 6.9-9.2 0-5.4-2.8-9.2-6.9-9.2Zm4.6 9.2c0 4.7-1.5 7.3-4.5 7.9H174V52.8h5.5c2.8.4 4.5 3.3 4.5 7.9ZM135.1 51.6l-5.6 15.7c-.7-2.6-4.4-15.4-4.4-15.6 0-.1 0-.1-1.4-.1h-.1v.1c0 .1-3.2 11.2-4.4 15.3l-5.5-15.4h-2.8l6.8 18.1.1.3h1.3l4.6-15.1 4.5 15.1h1.4l6.8-18.4h-1.3ZM51.5 58.7H40.3v-7h-2.5v7.1h-.7c-1.4 0-2.4 0-2.9-.1H34v1.2h3.7v10.3h2.5V59.7h11.2V70h2.3V51.6h-2.3v7.1h.1ZM92.1 70h1.5V51.6H92l-8.2 15.7-8.2-15.7h-1V70H77V56.7l6.8 13.1.1.1h.8l7.4-14.3zM110.1 68.5h-.2c-1.2.2-9.5.2-10.6.2v-8.2c2.7-.1 6.7 0 8.2.1h.2v-1.3h-.2c-1.4.2-6.1.2-7.9.2h-.3v-6.6c1.1 0 8.4 0 9.6.1h.3l-.8-1.5H96.9v18.4h12.8l.4-1.4ZM64.1 70.2c4.6 0 8.4-4.3 8.4-9.6S68.7 51 64.1 51c-4.6 0-8.4 4.3-8.4 9.6s3.8 9.6 8.4 9.6Zm-7.3-9.6c0-4.2 3.3-7.6 7.3-7.6s7.3 3.4 7.3 7.6c0 4.2-3.3 7.6-7.3 7.6s-7.3-3.4-7.3-7.6ZM144.2 51c-4.6 0-8.4 4.3-8.4 9.6s3.8 9.6 8.4 9.6c4.6 0 8.4-4.3 8.4-9.6s-3.8-9.6-8.4-9.6Zm7.2 9.6c0 4.2-3.3 7.6-7.3 7.6s-7.3-3.4-7.3-7.6c0-4.2 3.3-7.6 7.3-7.6s7.3 3.4 7.3 7.6ZM161.6 51c-4.6 0-8.4 4.3-8.4 9.6s3.8 9.6 8.4 9.6c4.6 0 8.4-4.3 8.4-9.6s-3.7-9.6-8.4-9.6Zm7.3 9.6c0 4.2-3.3 7.6-7.3 7.6s-7.3-3.4-7.3-7.6c0-4.2 3.3-7.6 7.3-7.6s7.3 3.4 7.3 7.6Z"/>
      <g>
      <path d="M149.1 80.8c.4 0 .7-.3.7-.8 0-.4-.3-.7-.7-.7-.4 0-.7.3-.7.8 0 .4.3.7.7.7ZM131.4 81.4c-.5 0-1 .2-1.5.6v-2.7h-1.6v.3l.4.1v6.1l-.4.1v.3h1.6V86c.3.2.6.3 1.2.3 1.4 0 2.2-.9 2.2-2.5 0-1.5-.8-2.4-1.9-2.4Zm-.5 4.5c-.5 0-.8-.2-1-.4v-3c.3-.1.6-.2.8-.2.8 0 1.3.7 1.3 1.8 0 1-.4 1.8-1.1 1.8ZM144.9 79.9l.4.1v2.5h-2.8V80l.4-.1v-.3h-2.2v.3l.5.1v5.8l-.5.1v.3h2.2v-.3l-.4-.1v-2.7h2.8v2.7l-.4.1v.3h2.2v-.3l-.5-.1V80l.5-.1v-.3h-2.2zM168.1 79.8h.1v-.1h.4v1.1l-.2.1v.1h.6v-.1l-.1-.1v-1.1h.3v.1h.2v-.2h-1.3zM137.1 81.8l.4.1-1.2 2.9-1.2-2.9.4-.1v-.3h-2.1v.3l.4.1 1.9 4.4-.1.1c-.2.6-.6 1.4-1.2 1.4-.2 0-.3 0-.4-.1l-.2-.4h-.3v1c.3.1.4.1.8.1.9 0 1.3-.9 1.7-1.9l1.9-4.6.4-.1v-.3h-1.4v.3h.2ZM159.8 81.4c-1.5 0-2.5 1-2.5 2.5 0 1.8 1 2.5 2.4 2.5 1.5 0 2.5-1 2.5-2.5 0-1.6-.9-2.5-2.4-2.5Zm-.1 4.6c-.7 0-1.1-.6-1.1-2.1s.4-2.1 1.1-2.1c.7 0 1.2.7 1.2 2.1 0 1.5-.4 2.1-1.2 2.1ZM170.4 80.5l-.4-.9h-.5l.1.1v1.1l-.1.1v.1h.4v-.1l-.2-.1v-1l.5 1.2h.1l.5-1.2v1l-.1.1v.1h.5v-.1l-.1-.1v-1.1l.1-.1h-.4zM167.7 83c0-1.1-.4-1.6-1.3-1.6-.7 0-1.2.3-1.7.7v-.7h-1.6v.3l.4.1v4l-.4.1v.3h2.1v-.3l-.4-.1v-3.4c.3-.2.7-.4 1-.4.6 0 .8.3.8 1.1v2.7l-.4.1v.3h2.1v-.3l-.4-.1V83h-.2ZM155.6 84.7v-2.8h1.1v-.4h-1.1v-1.3l-1.2.4v1h-.9v.4h.9v3.1c0 .8.2 1.3 1.2 1.3.4 0 .9-.1 1.5-.3v-.3c-.2.1-.4.1-.7.1-.7-.2-.8-.5-.8-1.2ZM149.7 81.5h-1.6v.3h.4v4l-.4.1v.3h2v-.3l-.4-.1zM152.7 79.4H151v.3h.4v6.1l-.4.1v.3h2.1v-.3l-.4-.1z"/>
      <g>
        <path d="M58.2 81.9c-1.6-.7-3.2-1.3-3.2-3 0-1.4 1.4-1.9 2.6-1.9.9 0 1.9.1 2.7 1.4l.1.2.7-1.4-.1-.1c-.8-.7-2.3-1-3.4-1-2 0-4.2 1.2-4.2 3.4 0 2.4 1.9 3.2 3.7 4 1.6.7 3.1 1.4 3.1 3.1 0 1.4-1.2 2.3-3 2.3-1.1 0-2.6-.2-3.6-1.9l-.2-.3-.5 1.6.1.1c1.2.9 2.6 1.4 4.3 1.4 2.3 0 4.6-1.3 4.6-3.9 0-2.4-1.9-3.2-3.7-4ZM75.5 76.4v8.1c0 2.4-1.8 4.1-4.3 4.1-1.2 0-2.3-.4-3-1.1-.7-.7-1.1-1.8-1.1-3v-8.3h-2v8.2c0 3.3 2.2 5.4 5.7 5.4 2.5 0 3.8-1.4 4.6-2.6 0 .5.1 1.1.2 1.5 0 .3.1.6.1.7v.1h1.7v-.2c-.1-2.4 0-5.5 0-8.5 0-1.7.1-3.2.1-4.6h-1.9l-.1.2ZM83.8 76.4v-.2h-1.9V89.5h1.9V76.4ZM87.5 77h3.8v12.6h1.9V77.1h4v-.9h-9.5l-.2.8ZM117.7 81.9c-1.6-.7-3.2-1.3-3.2-3 0-1.4 1.4-1.9 2.6-1.9.9 0 1.9.1 2.7 1.4l.1.2.7-1.4-.1-.1c-.8-.7-2.3-1-3.4-1-2 0-4.2 1.2-4.2 3.4 0 2.4 1.9 3.2 3.7 4 1.6.7 3.1 1.4 3.1 3.1 0 1.4-1.2 2.3-3 2.3-1.1 0-2.6-.2-3.6-1.9l-.2-.3-.6 1.6.1.1c1.2.9 2.6 1.4 4.3 1.4 2.3 0 4.6-1.3 4.6-3.9.1-2.4-1.8-3.2-3.6-4ZM102.6 88.6v-5.8c2 0 5 0 6 .1h.2v-1h-.2c-1.1.1-4.5.1-5.8.1h-.2v-4.8c.9 0 6.2 0 7.1.1h.3l-.6-1.1h-8.5v13.4h9.5l.3-1.2h-.2c-1 .2-6.9.2-7.9.2Z"/>
      </g>
    </g>
  </g>
</svg>