<svg xmlns="http://www.w3.org/2000/svg" id="instagram-logo" fill="none" aria-label="Instagram" data-testid="instagram-logo" role="img" viewBox="0 0 50 50">
    <path fill="#F00075" d="M35 0H15C6.71573 0 0 6.71573 0 15V35C0 43.2843 6.71573 50 15 50H35C43.2843 50 50 43.2843 50 35V15C50 6.71573 43.2843 0 35 0Z"/>
    <mask id="mask0" width="43" height="43" x="4" y="4" mask-type="alpha" maskUnits="userSpaceOnUse">
        <path fill="white" d="M4.00024 4.00012H46.0982V46.0987H4.00024V4.00012Z"/>
    </mask>
    <g mask="url(#mask0)">
        <path fill="white" fill-rule="evenodd" d="M25 7C20.112 7 19.4988 7.02052 17.579 7.10775C15.6626 7.19582 14.3543 7.49939 13.2092 7.94492C12.0257 8.40497 11.0218 9.02067 10.0212 10.0212C9.01986 11.0217 8.40501 12.0256 7.94494 13.2091C7.50026 14.3541 7.19583 15.6624 7.1086 17.5788C7.02052 19.4985 7 20.1117 7 24.9996C7 29.8883 7.02052 30.5015 7.1086 32.4212C7.19583 34.3367 7.50026 35.6459 7.94494 36.7901C8.40501 37.9744 9.01986 38.9783 10.0212 39.9788C11.0218 40.9793 12.0257 41.595 13.2092 42.0551C14.3543 42.4998 15.6626 42.8042 17.579 42.8914C19.4988 42.9786 20.112 43 25 43C29.8889 43 30.502 42.9786 32.4218 42.8914C34.3374 42.8042 35.6466 42.4998 36.7916 42.0551C37.9743 41.595 38.9782 40.9793 39.9788 39.9788C40.9801 38.9783 41.5958 37.9744 42.0559 36.7901C42.4997 35.6459 42.805 34.3367 42.8923 32.4212C42.9795 30.5015 43 29.8883 43 24.9996C43 20.1117 42.9795 19.4985 42.8923 17.5788C42.805 15.6624 42.4997 14.3541 42.0559 13.2091C41.5958 12.0256 40.9801 11.0217 39.9788 10.0212C38.9782 9.02067 37.9743 8.40497 36.7916 7.94492C35.6466 7.49939 34.3374 7.19582 32.4218 7.10775C30.502 7.02052 29.8889 7 25 7ZM25 10.2426C29.8068 10.2426 30.3763 10.2615 32.2739 10.3487C34.0286 10.4282 34.9813 10.7215 35.6167 10.9678C36.4564 11.2944 37.0559 11.6844 37.6853 12.3146C38.3164 12.944 38.7063 13.5434 39.033 14.384C39.2793 15.0185 39.5726 15.9711 39.6521 17.7259C39.7393 19.6242 39.7573 20.1938 39.7573 24.9996C39.7573 29.8062 39.7393 30.3749 39.6521 32.2733C39.5726 34.028 39.2793 34.9815 39.033 35.6151C38.7063 36.4557 38.3164 37.0552 37.6853 37.6854C37.0559 38.3156 36.4564 38.7055 35.6167 39.0314C34.9813 39.2785 34.0286 39.5718 32.2739 39.6513C30.3763 39.7385 29.8068 39.7565 25 39.7565C20.1932 39.7565 19.6245 39.7385 17.727 39.6513C15.9714 39.5718 15.0187 39.2785 14.3842 39.0314C13.5444 38.7055 12.9441 38.3156 12.3147 37.6854C11.6845 37.0552 11.2946 36.4557 10.9679 35.6151C10.7216 34.9815 10.4283 34.028 10.3479 32.2733C10.2615 30.3749 10.2436 29.8062 10.2436 24.9996C10.2436 20.1938 10.2615 19.6242 10.3479 17.7259C10.4283 15.9711 10.7216 15.0185 10.9679 14.384C11.2946 13.5434 11.6845 12.944 12.3147 12.3146C12.9441 11.6844 13.5444 11.2944 14.3842 10.9678C15.0187 10.7215 15.9714 10.4282 17.727 10.3487C19.6245 10.2615 20.1941 10.2426 25 10.2426Z" clip-rule="evenodd"/>
        <path fill="white" fill-rule="evenodd" d="M25.5 31.6672C22.0943 31.6672 19.3337 28.9057 19.3337 25.5C19.3337 22.0943 22.0943 19.3337 25.5 19.3337C28.9057 19.3337 31.6672 22.0943 31.6672 25.5C31.6672 28.9057 28.9057 31.6672 25.5 31.6672ZM25.5 16C20.253 16 16 20.2539 16 25.5C16 30.747 20.253 35 25.5 35C30.747 35 35 30.747 35 25.5C35 20.2539 30.747 16 25.5 16Z" clip-rule="evenodd"/>
        <path fill="white" fill-rule="evenodd" d="M37 15C37 16.1045 36.1045 17 35.0008 17C33.8955 17 33 16.1045 33 15C33 13.8955 33.8955 13 35.0008 13C36.1045 13 37 13.8955 37 15Z" clip-rule="evenodd"/>
    </g>
</svg>
