<svg xmlns="http://www.w3.org/2000/svg" width="220" height="140" viewBox="0 0 220 140"><path style="fill:none" d="M0 0h220v140H0z"/><path d="M66.965 83.07v-6.265h-.601v2.788h-3.356v-2.788h-.592v6.265h.592v-2.919h3.356v2.919h.601zm7.923-3.125c0 1.82-1.41 3.237-3.21 3.237-1.839 0-3.228-1.4-3.228-3.253 0-1.845 1.373-3.236 3.186-3.236 1.887 0 3.252 1.373 3.252 3.252m-.635-.042c0-1.51-1.09-2.617-2.609-2.617-1.512 0-2.559 1.08-2.559 2.643 0 1.476 1.166 2.678 2.593 2.678 1.287 0 2.575-.926 2.575-2.704m4.505-2.549v-.549H75.48v.549h1.338v5.716h.602v-5.716h1.338zm4.695 5.716v-.549h-2.884v-2.198h2.637v-.548h-2.637v-2.421h2.721v-.549h-3.313v6.265h3.476zm4.661 0v-.549h-2.533v-5.716h-.592v6.265h3.125zm2.437.103c.918 0 1.641-.686 1.641-1.674 0-.831-.515-1.364-1.356-1.861-.706-.414-1.186-.663-1.186-1.41 0-.617.43-.976.901-.976.412 0 .755.151 1.126.48l.368-.437a2.083 2.083 0 0 0-1.502-.594c-.857 0-1.502.627-1.502 1.555 0 .901.592 1.382 1.441 1.879.738.427 1.09.738 1.09 1.399 0 .653-.384 1.08-1.003 1.08-.548 0-.9-.188-1.27-.514l-.36.43c.464.43.944.643 1.612.643m9.132-.103-.593-.669c-.54.448-1.139.774-1.904.774-.962 0-1.734-.714-1.734-1.63 0-.844.618-1.495 1.245-1.925l-.378-.43c-.281-.325-.515-.703-.515-1.141 0-.747.661-1.348 1.415-1.348.842 0 1.408.585 1.408 1.34 0 .72-.6 1.245-1.149 1.657l1.699 1.914c.206-.206.387-.42.558-.653l.404.378a7.546 7.546 0 0 1-.62.688l.93 1.045h-.765Zm-2.454-5.853c-.445 0-.833.335-.833.816 0 .333.12.573.412.9l.336.379c.394-.276.909-.713.909-1.246 0-.506-.318-.85-.824-.85m-.19 2.808c-.505.368-.986.841-.986 1.467 0 .635.481 1.151 1.133 1.151.618 0 1.141-.266 1.577-.644l-1.723-1.974Zm9.865-1.476c0 .823-.559 1.365-1.435 1.365h-1.053c.101.101 2.71 3.124 2.737 3.159h.745l-2.411-2.757h.327c.935 0 1.723-.79 1.723-1.726 0-1.039-.788-1.785-1.886-1.785h-1.975v6.268h.592v-5.72h1.227c.97 0 1.409.699 1.409 1.196m5.699 4.522v-.549h-2.885v-2.198h2.637v-.548h-2.637v-2.421h2.722v-.549h-3.313v6.265h3.476zm2.729.103c.919 0 1.64-.686 1.64-1.674 0-.831-.514-1.364-1.357-1.861-.703-.414-1.184-.663-1.184-1.41 0-.617.43-.976.9-.976.413 0 .757.151 1.127.48l.368-.437a2.083 2.083 0 0 0-1.502-.594c-.859 0-1.502.627-1.502 1.555 0 .901.593 1.382 1.442 1.879.739.427 1.091.738 1.091 1.399 0 .653-.387 1.08-1.005 1.08-.55 0-.903-.188-1.27-.514l-.362.43c.462.43.945.643 1.613.643m9.021-3.228c0 1.82-1.406 3.237-3.207 3.237-1.839 0-3.229-1.4-3.229-3.253 0-1.845 1.374-3.236 3.183-3.236 1.89 0 3.253 1.373 3.253 3.252m-.634-.042c0-1.51-1.09-2.617-2.608-2.617-1.512 0-2.56 1.08-2.56 2.643 0 1.476 1.168 2.678 2.595 2.678 1.286 0 2.573-.926 2.573-2.704m5.348-1.355c0 .823-.56 1.365-1.433 1.365h-1.057a353.57 353.57 0 0 1 2.738 3.159h.748l-2.411-2.757h.325a1.75 1.75 0 0 0 1.726-1.726c0-1.039-.792-1.785-1.89-1.785h-1.973v6.268h.59v-5.72h1.228c.97 0 1.41.699 1.41 1.196m4.738-1.194v-.549h-3.28v.549h1.339v5.716h.601v-5.716h1.34zm2.411 5.819c.917 0 1.64-.686 1.64-1.674 0-.831-.516-1.364-1.357-1.861-.705-.414-1.184-.663-1.184-1.41 0-.617.428-.976.901-.976.412 0 .756.151 1.124.48l.37-.437a2.091 2.091 0 0 0-1.503-.594c-.858 0-1.501.627-1.501 1.555 0 .901.59 1.382 1.44 1.879.737.427 1.091.738 1.091 1.399 0 .653-.387 1.08-1.004 1.08-.55 0-.902-.188-1.272-.514l-.36.43c.465.43.944.643 1.615.643m17.911-26.355 5.554 13.26h-1.343l-1.009-2.42h-6.418l-.99 2.42h-1.345l5.551-13.26Zm-2.756 9.724h5.498l-2.742-6.842-2.756 6.842Zm12.59 3.748c1.89 0 3.378-1.414 3.378-3.446 0-1.717-1.063-2.814-2.795-3.838-1.45-.848-2.44-1.362-2.44-2.9 0-1.272.884-2.016 1.857-2.016.848 0 1.555.319 2.315.991l.758-.903c-.845-.812-1.872-1.218-3.092-1.218-1.768 0-3.095 1.29-3.095 3.2 0 1.857 1.22 2.846 2.973 3.87 1.52.885 2.244 1.522 2.244 2.885 0 1.342-.795 2.225-2.068 2.225-1.132 0-1.858-.387-2.618-1.06l-.743.885c.955.883 1.948 1.325 3.326 1.325m11.175-11.987v-1.132h-6.755v1.132h2.758v11.775h1.237V58.303h2.76zm14.041 5.34c0 3.749-2.9 6.665-6.613 6.665-3.785 0-6.65-2.883-6.65-6.702 0-3.8 2.83-6.666 6.56-6.666 3.89 0 6.703 2.83 6.703 6.703m-1.31-.088c0-3.113-2.245-5.394-5.374-5.394-3.113 0-5.27 2.23-5.27 5.445 0 3.043 2.404 5.518 5.34 5.518 2.652 0 5.304-1.91 5.304-5.57m11.018-2.794c0 1.697-1.15 2.812-2.953 2.812h-2.176c.212.212 5.59 6.437 5.64 6.507h1.54c-.283-.32-4.969-5.677-4.969-5.677h.67c1.93 0 3.556-1.626 3.556-3.553 0-2.14-1.626-3.677-3.891-3.677h-4.067V70.08h1.221V58.303h2.528c1.998 0 2.901 1.432 2.901 2.457m4.58-3.59h1.219v12.907h-1.219zm8.327-.352 5.552 13.26h-1.343l-1.008-2.42h-6.42l-.988 2.42h-1.345l5.552-13.26Zm-2.758 9.724h5.5l-2.742-6.842-2.758 6.842Zm9.547-6.814a1.42 1.42 0 1 1 .002-2.841 1.42 1.42 0 0 1-.002 2.84m0-2.63c-.67 0-1.216.545-1.216 1.214a1.216 1.216 0 0 0 2.432 0c0-.67-.546-1.215-1.216-1.215m.396 2.002-.65-.754v.754h-.242v-1.65h.554c.305 0 .508.22.508.486a.48.48 0 0 1-.47.473l.61.69h-.31Zm-.355-1.42h-.295v.536h.265c.177 0 .302-.106.302-.286 0-.114-.108-.25-.272-.25M62.425 70.43l3.393-8.203 3.396 8.203 5.198-13.261h-1.343l-3.908 10.219-3.359-8.009-3.289 8.046-3.945-10.256h-1.341l5.198 13.261zm17.081-13.613 5.551 13.259h-1.342l-1.008-2.42h-6.42l-.989 2.42h-1.344l5.552-13.26Zm-2.759 9.724h5.5l-2.741-6.843-2.759 6.843Zm17.011 3.537v-1.133h-5.214V57.171h-1.221v12.907h6.435zm5.515-.002h-3.216V57.169h3.287c4.015 0 6.79 2.512 6.79 6.366 0 3.89-2.81 6.541-6.86 6.541m.178-11.81h-2.176V68.98h2.017c3.482 0 5.55-2.405 5.55-5.428 0-3.13-2.245-5.287-5.39-5.287m22.419 5.375c0 3.75-2.9 6.666-6.612 6.666-3.785 0-6.65-2.881-6.65-6.7 0-3.802 2.83-6.666 6.561-6.666 3.89 0 6.7 2.83 6.7 6.7m-1.307-.087c0-3.11-2.245-5.393-5.375-5.393-3.112 0-5.27 2.227-5.27 5.446 0 3.04 2.406 5.516 5.34 5.516 2.653 0 5.305-1.91 5.305-5.57m11.016-2.794c0 1.698-1.147 2.812-2.953 2.812h-2.173c.212.212 5.587 6.437 5.641 6.508h1.536l-4.967-5.678h.673c1.927 0 3.553-1.624 3.553-3.553 0-2.14-1.626-3.677-3.89-3.677h-4.068v12.908h1.22V58.3h2.53c1.998 0 2.899 1.432 2.899 2.457m11.491-2.452v-1.132h-6.902v12.893h1.216v-5.617h4.362V63.32h-4.362v-5.015h5.686zM38.5 65.673l5.647-11.947h-3.291v-.539h7.477v.539h-2.972l-6.242 13.26-.618-1.313ZM7.479 53.187H0v.539h1.333l15.554 32.995 6.446-13.406 6.319 13.406 6.427-13.363 5.883 12.914h-1.095v.54h7.476v-.54H47.01L31.447 53.255l-5.723 12.124.607 1.309 3.414-7.233 4.188 9.193h-6.691l.452.976h6.683l.417.915h-6.675l.448.963h6.666l.2.439-4.101 8.53L19.15 53.726h1.223v-.539h-7.478v.539h1.332l8.435 18.231-4.096 8.514L6.384 53.726h1.094v-.539Zm23.636 3.37.536-1.136 14.255 30.851h-1.032l-13.76-29.715Zm-14.1-2.831h1.03l12.828 27.703-.542 1.123-13.316-28.826Zm1.092 27.703-.54 1.123-13.32-28.826h1.032l12.828 27.703Z"/></svg>