<?xml version="1.0" encoding="UTF-8"?>
<svg version="1.1" id="Layer_1" xmlns="http://www.w3.org/2000/svg" x="0" y="0" width="116px" height="50px" viewBox="0 0 116 50" style="enable-background:new 0 0 116 50" xml:space="preserve">
    <style>
        .st0{fill:#231f20}.st1{font-family:&apos;CocogooseClassic-Light&apos;}.st2{font-size:2.028px}
    </style>
    <g id="g8" transform="matrix(1.33333 0 0 -1.33333 0 314.667)">
        <g id="g10" transform="scale(.1)">
            <path id="path12" class="st0" d="M80.5 2346.7h680v-237.5h-680v237.5zm-11.9-249.5h704v261.4h-704v-261.4"/>
            <path id="path14" class="st0" d="M257 2290.3v-124.5l9.8-1.3v-7.3h-48.3v7.3l10.4 1.3v56.7h-61.8v-56.7l9.5-1.3v-7.3h-47.5v7.3l9.5 1.3v124.5l-9.5 1.3v7.1h47.5v-7.1l-9.5-1.3v-53.2h61.8v53.2l-10.4 1.3v7.1h48.3v-7.1l-9.8-1.3"/>
            <path id="path16" class="st0" d="m322.9 2164.9 9.1-1.3v-6.4h-44.4v6.4l9.1 1.3v85.3l-9.1 1.3v6.4h35.3v-93"/>
            <path id="path18" class="st0" d="m351.3 2163.4 8.9 1.2v126.5l-8.9 1.3v6.2h35.3v-134l9.1-1.2v-6.3h-44.4v6.3"/>
            <path id="path20" class="st0" d="M449.7 2257.9h23.8v-9.4h-23.8v-59.9c0-15.5 3.2-20.4 17.3-20.4 5.2 0 9.8 0 14.1 1.1v-6.9c-12.8-4.5-23.6-6.4-32.7-6.4-20.4 0-25.1 9.2-25.1 26.8v65.7h-18.6v9.4H424v21l25.8 7.7v-28.7"/>
            <path id="path22" class="st0" d="M593 2206.6c0-31.4-21.2-52.4-54.6-52.4-32.3 0-52.9 13.7-52.9 52.4 0 32.4 21.2 54.1 54.6 54.1 33 0 52.9-19.6 52.9-54.1m-29 .6c0 31.8-9.5 45.7-24.9 45.7-15 0-24.5-13.3-24.5-45.7 0-32 9.5-45.3 24.5-45.3 16 0 24.9 12.7 24.9 45.3"/>
            <path id="path24" class="st0" d="M713.6 2163.6v-6.4h-44.4v6.4l8.9 1.3v57.3c0 15.9-5.9 23-18 23-5.6 0-14.5-3.9-21-8.4v-71.9l9.1-1.3v-6.4h-44.6v6.4l9.1 1.3v84.6l-9.1 1.3v7.1h35.5v-14c11 8.8 21.7 15.9 36.6 15.9 19.9 0 28.8-11.6 28.8-34.4v-60.6l9.1-1.2"/>
            <path id="path26" class="st0" d="M324.2 2284.5c0-7.8-6.4-14.2-14.3-14.2s-14.3 6.3-14.3 14.2c0 7.8 6.4 14.2 14.3 14.2s14.3-6.4 14.3-14.2"/>
            <path id="path28" class="st0" d="M790.4 2350.9h2.1c1.4 0 1.9.4 1.9 1.4 0 1-.5 1.4-1.9 1.4h-2.1v-2.8zm5.8 1.5c0-1.4-.6-2.2-1.8-2.6l2.2-3.2h-2l-2 2.9h-2.2v-2.9h-1.7v8.6h3.8c2.6 0 3.7-.9 3.7-2.8zm-11-1.6c0-3.9 3.2-7.2 7.2-7.2 3.9 0 7.2 3.2 7.2 7.2 0 3.9-3.2 7.2-7.2 7.2s-7.2-3.2-7.2-7.2zm16.2 0c0-5-4.1-9.1-9.1-9.1s-9.1 4.1-9.1 9.1 4.1 9.1 9.1 9.1c5.1 0 9.1-4 9.1-9.1"/>
            <path id="path30" class="st0" d="M94.3 1986.2H83.6c-1.2 0-1.8.6-1.8 1.8v58.2c0 1.2.6 1.8 1.8 1.8h38.6c1.2 0 1.8-.6 1.8-1.8v-9.4c0-1.2-.6-1.8-1.8-1.8H96.1v-14.9h19.7c1.2 0 1.8-.6 1.8-1.8v-8.7c0-1.2-.6-1.8-1.8-1.8H96.1v-20.1c0-1-.6-1.5-1.8-1.5"/>
            <path id="path32" class="st0" d="M175.1 2001.1c2.7 1.6 4.8 3.8 6.4 6.6 1.6 2.8 2.4 5.9 2.4 9.3 0 3.4-.8 6.5-2.4 9.3-1.6 2.8-3.8 5-6.5 6.6-2.7 1.6-5.6 2.4-8.7 2.4-3.1 0-6.1-.8-8.7-2.4-2.7-1.6-4.8-3.8-6.4-6.6-1.6-2.8-2.4-5.9-2.4-9.3 0-3.4.8-6.5 2.4-9.3 1.6-2.8 3.8-5 6.5-6.6 2.7-1.6 5.6-2.4 8.7-2.4 3.1 0 6 .8 8.7 2.4zm-25-11.8c-4.9 2.9-8.8 6.7-11.6 11.6-2.8 4.9-4.2 10.3-4.2 16.2 0 5.9 1.4 11.2 4.2 16.1 2.8 4.9 6.7 8.7 11.6 11.6 4.9 2.8 10.3 4.2 16.3 4.2 5.9 0 11.3-1.4 16.2-4.2 4.9-2.8 8.8-6.7 11.6-11.6 2.8-4.9 4.2-10.3 4.2-16.1 0-5.9-1.4-11.2-4.2-16.2-2.8-4.9-6.7-8.8-11.6-11.6-4.9-2.9-10.3-4.3-16.2-4.3-6 .1-11.4 1.5-16.3 4.3"/>
            <path id="path34" class="st0" d="M242.1 2019.7c1.3.8 2.3 1.8 3 3.1.7 1.3 1.1 2.7 1.1 4.3 0 1.7-.4 3.2-1.1 4.5-.7 1.2-1.7 2.2-3 2.8-1.2.6-2.6.9-4.2.9h-10.8v-16.7h10.6c1.6 0 3.1.3 4.4 1.1zm-29.2-31.8v58.2c0 1.2.6 1.8 1.8 1.8h24.4c4.2 0 8-.9 11.2-2.6 3.3-1.8 5.8-4.2 7.6-7.3 1.8-3.1 2.7-6.7 2.7-10.8 0-4-.8-7.4-2.5-10.2-1.7-2.8-4-5.1-7.1-6.9l10.8-21.8c.2-.4.3-.7.3-.9 0-.4-.1-.6-.4-.8-.3-.2-.7-.3-1.1-.3h-12.3c-1 0-1.7.4-2.1 1.3l-8.8 18.9h-10.3v-18.4c0-1.2-.6-1.8-1.8-1.8h-10.7c-1.2-.1-1.7.4-1.7 1.6"/>
            <path id="path36" class="st0" d="M333.8 1986.2h-10.7c-1.2 0-1.8.6-1.8 1.8v46.7h-15.4c-1.2 0-1.8.6-1.8 1.8v9.8c0 1.2.6 1.8 1.8 1.8H351c1.2 0 1.8-.6 1.8-1.8v-9.8c0-1.2-.6-1.8-1.8-1.8h-15.5V1988c.1-1.3-.5-1.8-1.7-1.8"/>
            <path id="path38" class="st0" d="M381.8 1986.2h-10.7c-1.2 0-1.8.6-1.8 1.8v58.2c0 1.2.6 1.8 1.8 1.8h10.7c1.2 0 1.8-.6 1.8-1.8v-21h25.1v21c0 1.2.6 1.8 1.8 1.8h10.8c1.2 0 1.8-.6 1.8-1.8V1988c0-1.2-.6-1.8-1.8-1.8h-10.8c-1.2 0-1.8.6-1.8 1.8v23.6h-25.1V1988c-.1-1.3-.6-1.8-1.8-1.8"/>
            <path id="path40" class="st0" d="M487.8 1986.2h-41.7c-1.2 0-1.8.6-1.8 1.8v58.2c0 1.2.6 1.8 1.8 1.8h41.1c1.2 0 1.8-.6 1.8-1.8v-9.5c0-1.2-.6-1.8-1.8-1.8h-28.6v-11.1h22c1.2 0 1.8-.6 1.8-1.8v-8.7c0-1.2-.6-1.8-1.8-1.8h-22V1999h29.2c1.2 0 1.8-.6 1.8-1.8v-9.5c-.1-1-.7-1.5-1.8-1.5"/>
            <path id="path42" class="st0" d="M545.2 1987.8c-4.1 1.8-7.7 4.4-10.8 7.8-.4.4-.5.8-.5 1.2 0 .4.2.9.7 1.3l6.8 6.5c.4.4.8.6 1.2.6.5 0 .9-.2 1.3-.7 2-2 4.2-3.6 6.7-4.6 2.5-1 5.1-1.6 7.7-1.6 2.8 0 5 .5 6.5 1.6 1.5 1 2.3 2.5 2.3 4.3 0 1.2-.3 2.3-1 3.1-.7.9-1.9 1.7-3.6 2.4-1.7.8-4.1 1.6-7.2 2.5-5.1 1.5-9.5 3.7-13.3 6.7-3.7 3-5.6 7.1-5.6 12.5 0 3.2.8 6.1 2.5 8.8 1.6 2.7 4.1 4.8 7.4 6.4 3.3 1.6 7.3 2.4 12 2.4 4 0 7.8-.7 11.5-2.1 3.6-1.4 6.9-3.3 9.8-5.8.4-.4.7-.8.7-1.2 0-.4-.2-.8-.5-1.2l-6.2-7c-.4-.5-.8-.7-1.3-.7-.4 0-.8.2-1.2.5-1.7 1.3-3.6 2.4-5.8 3.3-2.2.9-4.3 1.3-6.4 1.3-2.4 0-4.3-.4-5.6-1.2-1.4-.8-2-2-2-3.5 0-1.2.4-2.2 1.2-3.1.8-.8 1.8-1.5 3.1-2.1 1.3-.6 3.3-1.3 5.9-2.1.1 0 .5-.1 1.1-.4 4.2-1.4 7.7-2.9 10.5-4.5s4.9-3.6 6.5-6c1.6-2.4 2.3-5.3 2.3-8.7 0-3.9-1-7.3-2.9-10.2-1.9-2.9-4.6-5.2-8-6.8-3.5-1.6-7.4-2.4-12-2.4-5.2 0-9.7.9-13.8 2.7"/>
            <path id="path44" class="st0" d="M622.3 1986.2h-10.7c-1.2 0-1.8.6-1.8 1.8v46.7h-15.4c-1.2 0-1.8.6-1.8 1.8v9.8c0 1.2.6 1.8 1.8 1.8h45.1c1.2 0 1.8-.6 1.8-1.8v-9.8c0-1.2-.6-1.8-1.8-1.8H624V1988c.1-1.3-.5-1.8-1.7-1.8"/>
            <path id="path46" class="st0" d="m682.5 2008.7-7 19.8-.7 2.5-.6-2.5-7-19.8h15.3zm21.8-21.3c0-.4-.1-.7-.4-.9-.3-.2-.6-.3-1.1-.3h-11c-1 0-1.7.5-2 1.5l-3.3 9.1H663l-3.2-9.1c-.3-1-1-1.5-2-1.5h-11c-.5 0-.8.1-1.1.3-.3.2-.4.5-.4.9 0 .2 0 .5.1.7l22.7 58.4c.4.9 1 1.4 2 1.4h9.5c1 0 1.7-.5 2.1-1.4l22.5-58.4c.1-.2.1-.4.1-.7"/>
            <path id="path48" class="st0" d="M739.2 1986.2h-10.8c-1.2 0-1.8.6-1.8 1.8v22.3l-20.3 35.6c-.2.4-.3.7-.3 1 0 .4.1.6.4.8.3.2.6.3 1.1.3h12.7c1 0 1.7-.4 2.1-1.3l11.6-23.1 11.3 23.1c.4.9 1.1 1.3 2.1 1.3H760c.5 0 .8-.1 1.1-.3.3-.2.4-.5.4-.8 0-.3-.1-.6-.3-1l-20.2-35.5V1988c0-1.3-.6-1.8-1.8-1.8"/>
            <g id="g50">
                <text transform="matrix(7.5 0 0 -7.5 767.904 2036.348)" class="st1 st2">T</text>
                <text transform="matrix(7.5 0 0 -7.5 777.359 2036.348)" class="st1 st2">M</text>
            </g>
        </g>
    </g>
</svg>