<?xml version="1.0" encoding="UTF-8"?>
<svg width="77px" height="50px" viewBox="0 0 77 50" version="1.1" xmlns="http://www.w3.org/2000/svg" xmlns:xlink="http://www.w3.org/1999/xlink">
    <g id="Hampton-77x50-Copy" stroke="none" stroke-width="1" fill="none" fill-rule="evenodd">
        <g id="Logos-/-Color-/-Hampton" transform="translate(1.000000, 1.000000)">
            <g id="HP">
                <polygon id="Path" fill="#AA073B" points="0 36.358 0 10.951 37.272 0 74.545 10.951 74.545 36.358 37.272 47.31"></polygon>
                <polygon id="Path" fill="#FFFFFF" points="2.019 34.835 2.019 12.475 37.273 2.11401 72.526 12.475 72.526 34.835 37.273 45.195"></polygon>
                <polygon id="Path" fill="#00247D" points="37.272 2.70401 2.609 12.913 2.609 34.396 37.272 44.604 71.954 34.396 71.954 12.913"></polygon>
                <polygon id="Path" fill="#AA073B" fill-rule="nonzero" points="72.012 40.034 72.012 38.681 71.498 38.681 71.498 38.491 72.736 38.491 72.736 38.681 72.222 38.681 72.222 40.033"></polygon>
                <polygon id="Path" fill="#AA073B" fill-rule="nonzero" points="72.945 38.491 73.326 38.491 73.764 39.748 74.202 38.491 74.545 38.491 74.545 40.034 74.335 40.034 74.335 38.644 73.835 40.034 73.625 40.034 73.149 38.663 73.149 40.034 72.945 40.034"></polygon>
                <path d="M46.015,17.788 C45.6454,17.7476 45.2716,17.8015 44.9285,17.9448 C44.5854,18.088 44.2842,18.3158 44.053,18.607 L43.953,17.94 L42.491,17.94 L41.063,22.321 C40.6331,23.2096 39.9506,23.9515 39.101,24.454 C38.401,24.835 38.53,23.806 38.834,22.968 C39.138,22.13 39.901,20.378 40.186,19.216 C40.472,18.035 39.748,17.559 38.758,17.826 C37.768,18.093 36.458,19.788 36.458,19.788 C36.668,17.864 35.734,17.688 35.068,17.888 C34.3718,18.2187 33.7336,18.6597 33.178,19.194 C33.2613,18.7419 33.2995,18.2827 33.292,17.823 L31.674,17.823 C31.674,17.823 30.397,22.074 30.188,22.494 C30.055,22.761 28.836,24.418 28.288,24.322 C27.74,24.226 27.988,23.446 28.25,22.646 C28.512,21.846 29.774,17.808 29.774,17.808 L27.921,17.808 L27.673,18.322 C27.373,17.522 25.573,17.408 24.245,18.836 C23.1267,20.1359 22.4468,21.7554 22.302,23.464 C22.169,24.721 22.34,25.521 23.54,25.521 C24.74,25.521 26.054,23.921 26.054,23.921 C26.054,25.021 26.34,25.621 27.311,25.597 C28.301,25.578 29.635,24.188 29.635,24.188 L29.216,25.388 L31.116,25.388 C31.5586,23.8976 32.106,22.4403 32.754,21.027 C33.0158,20.292 33.5192,19.6677 34.182,19.256 C34.658,19.085 34.868,19.446 34.753,19.827 C34.638,20.208 33.001,25.427 33.001,25.427 L34.677,25.446 C34.677,25.446 35.577,22.97 36.048,21.827 C36.418,20.8156 37.0253,19.9079 37.819,19.18 C38.428,18.742 38.276,19.28 38.143,19.751 C38.01,20.251 36.772,23.56 36.643,24.132 C36.5926,24.3131 36.5843,24.5033 36.6188,24.688 C36.6532,24.8728 36.7295,25.0472 36.8417,25.198 C36.954,25.3487 37.0992,25.4718 37.2664,25.5578 C37.4335,25.6438 37.6181,25.6904 37.806,25.694 C38.834,25.713 40.377,24.132 40.377,24.132 L39.063,28.394 L40.929,28.432 L41.996,25.175 C42.263,25.423 42.282,25.556 43.234,25.613 C44.186,25.67 45.729,24.28 46.396,22.661 C47.101,21.026 47.346,17.979 46.015,17.788 Z M27.083,20.702 C26.8022,21.6587 26.3491,22.5561 25.746,23.35 C25.213,23.921 24.584,24.264 24.279,24.15 C23.974,24.036 24.146,22.778 24.546,21.694 C24.8499,20.7258 25.3711,19.8398 26.07,19.104 C26.2185,18.9737 26.3948,18.879 26.5854,18.827 C26.776,18.775 26.9759,18.7671 27.17,18.804 C27.2831,19.1101 27.3336,19.4358 27.3187,19.7618 C27.3037,20.0878 27.2236,20.4075 27.083,20.702 Z M44.777,22.074 C44.148,23.617 43.12,24.702 42.72,24.588 C42.32,24.474 42.42,23.179 43.063,21.488 C43.711,19.812 44.606,18.669 45.025,18.86 C45.291,18.969 45.405,20.531 44.777,22.074 Z M69.422,19.427 C68.984,19.527 69.122,19.751 69.155,21.37 C69.188,22.989 67.536,25.332 66.508,26.15 C65.48,26.968 64.032,27.54 63.099,26.664 C62.166,25.788 63.042,23.464 63.728,21.598 C64.428,19.732 64.528,19.141 64.428,18.455 C64.314,17.769 63.228,17.788 62.752,17.998 C62.153,18.3609 61.592,18.782 61.076,19.255 L61.176,18.155 L59.614,18.094 C59.36,18.8167 58.957,19.4785 58.433,20.037 C58.137,20.363 57.756,20.6004 57.333,20.723 C57.333,20.723 57.333,20.456 57.371,19.58 C57.363,19.1666 57.212,18.7686 56.9452,18.453 C56.6781,18.1374 56.3104,17.9234 55.904,17.847 C55.292,17.793 54.6769,17.9084 54.1261,18.1805 C53.5753,18.4527 53.1099,18.8711 52.781,19.39 C52.0857,20.4273 51.6243,21.6035 51.429,22.837 C51.0069,23.4816 50.4635,24.0379 49.829,24.475 C49.372,24.761 49.029,24.989 49.372,23.256 C49.7732,21.6567 50.2823,20.0864 50.896,18.556 L52.42,18.556 L52.534,18.004 L51.01,17.985 L51.886,15.109 L50,15.376 L49.143,17.966 L47.772,17.985 L47.772,18.537 L48.986,18.537 C48.986,18.537 48.377,20.403 48.3,20.708 C48.243,21.008 47.252,23.279 47.4,24.67 C47.59,26.327 49.076,25.718 49.762,25.318 C50.3957,24.863 50.9769,24.3392 51.495,23.756 C51.685,25.622 53.476,26.08 55.057,25.242 C56.619,24.404 57.157,21.528 57.157,21.528 C57.747,21.547 58.795,20.595 58.795,20.595 L57.157,25.528 L58.946,25.528 C59.443,23.5149 60.28,21.6016 61.422,19.871 C61.898,19.204 62.412,18.957 62.584,19.147 C62.755,19.318 62.432,20.004 61.898,21.356 C61.254,22.6867 60.997,24.1713 61.155,25.641 C61.422,27.141 62.222,27.741 63.821,27.831 C64.838,27.777 65.827,27.4744 66.7,26.9498 C67.573,26.4253 68.305,25.6947 68.83,24.822 C69.692,23.6104 70.147,22.1567 70.13,20.67 C70.165,19.712 69.86,19.331 69.422,19.426 L69.422,19.427 Z M55.271,23.559 C54.871,24.34 54.319,25.045 53.785,24.797 C53.271,24.549 53.366,22.835 53.652,21.788 C53.8624,21.0845 54.1651,20.412 54.552,19.788 C54.6357,20.1635 54.8,20.5163 55.0334,20.8221 C55.2668,21.1278 55.5639,21.3793 55.904,21.559 C55.7715,22.248 55.5591,22.9192 55.271,23.559 Z M56.171,20.816 C56.171,20.816 55.671,20.759 55.39,19.959 C55.2174,19.6044 55.164,19.2034 55.238,18.816 C55.3392,18.6975 55.4703,18.6084 55.6178,18.5581 C55.7652,18.5078 55.9235,18.4981 56.076,18.53 C56.528,18.664 56.395,20.15 56.166,20.817 L56.171,20.816 Z M14.289,19.978 L12.589,19.978 L12.608,20.759 L14.055,20.778 C13.6974,22.3624 13.1804,23.9066 12.512,25.387 C11.541,27.311 10.398,28.949 8.665,28.758 C7.6982,28.5824 6.8306,28.0553 6.2293,27.2782 C5.6279,26.5011 5.3354,25.5289 5.408,24.549 C5.427,22.206 5.522,21.311 6.76,20.016 C7.26,19.483 7.217,18.759 6.417,18.968 C5.617,19.197 5.065,19.692 4.684,21.196 C4.41,22.3088 4.3615,23.4652 4.5415,24.597 C4.7215,25.7288 5.1263,26.8131 5.732,27.786 C7.046,29.995 10.189,29.957 11.732,28.605 C13.1288,27.3107 14.2328,25.7328 14.97,23.977 C15.751,22.053 16.17,20.834 16.17,20.834 L19.16,20.834 C19.16,20.834 16.322,27.729 19.941,29.557 C19.5204,28.3705 19.4475,27.0885 19.731,25.862 C20.1541,24.1546 20.7015,22.4805 21.369,20.853 C21.369,20.853 21.712,20.815 21.807,20.815 C21.902,20.815 22.169,20.948 22.283,20.777 C22.3609,20.5839 22.3951,20.3759 22.383,20.168 L21.621,20.092 C21.9404,18.9461 22.3284,17.8203 22.783,16.721 C23.3159,15.4383 24.1144,14.2829 25.126,13.331 C25.126,13.331 24.269,13.007 22.65,14.245 C21.031,15.483 19.389,20.094 19.389,20.094 L16.456,20.056 C16.7701,18.8292 17.2039,17.6361 17.751,16.494 C18.203,15.5684 18.712,14.6717 19.275,13.809 C19.275,13.809 16.113,14.609 15.599,14.685 C14.4964,14.9 13.4133,15.2058 12.361,15.599 C11.599,15.961 11.275,17.008 11.561,17.161 C11.847,17.314 12.437,16.861 12.951,16.475 C14.2004,15.6454 15.6192,15.1052 17.104,14.894 C15.8326,16.3827 14.8739,18.112 14.285,19.979 L14.289,19.978 Z" id="Shape" fill="#FEFEFE"></path>
                <path d="M23.521,31.444 L23.94,31.444 L23.94,32.606 C24.0379,32.4788 24.1654,32.3775 24.3115,32.3111 C24.4576,32.2447 24.6178,32.2151 24.778,32.225 C25.0912,32.225 25.3916,32.3494 25.6131,32.5709 C25.8346,32.7924 25.959,33.0928 25.959,33.406 C25.959,33.7192 25.8346,34.0196 25.6131,34.2411 C25.3916,34.4626 25.0912,34.587 24.778,34.587 C24.6201,34.5937 24.4627,34.5646 24.3176,34.5019 C24.1724,34.4392 24.0434,34.3446 23.94,34.225 L23.94,34.511 L23.521,34.511 L23.521,31.444 Z M24.74,32.568 C24.578,32.568 24.4197,32.616 24.285,32.706 C24.1503,32.796 24.0453,32.9239 23.9833,33.0736 C23.9213,33.2232 23.9051,33.3879 23.9367,33.5468 C23.9683,33.7056 24.0463,33.8516 24.1609,33.9661 C24.2754,34.0806 24.4213,34.1587 24.5802,34.1903 C24.7391,34.2219 24.9038,34.2056 25.0534,34.1436 C25.2031,34.0817 25.331,33.9767 25.421,33.842 C25.511,33.7073 25.559,33.549 25.559,33.387 C25.5662,33.2776 25.55,33.1679 25.5114,33.0652 C25.4728,32.9626 25.4127,32.8694 25.3351,32.7919 C25.2576,32.7143 25.1644,32.6542 25.0618,32.6156 C24.9591,32.577 24.8494,32.5608 24.74,32.568 Z" id="Shape" fill="#FFFFFF" fill-rule="nonzero"></path>
                <path d="M28.568,32.263 L29.044,32.263 L27.882,34.872 C27.672,35.348 27.501,35.424 27.101,35.424 C26.9927,35.4272 26.8843,35.4208 26.777,35.405 L26.777,35.044 C26.853,35.044 26.929,35.063 27.025,35.063 C27.292,35.063 27.349,35.006 27.482,34.72 L27.582,34.51 L26.549,32.244 L27.049,32.244 L27.811,33.996 L28.568,32.263 Z" id="Path" fill="#FFFFFF" fill-rule="nonzero"></path>
                <polygon id="Path" fill="#FFFFFF" fill-rule="nonzero" points="31.596 31.463 32.225 31.463 32.225 32.644 34.111 32.644 34.111 31.463 34.74 31.463 34.74 34.491 34.111 34.491 34.111 33.12 32.225 33.12 32.225 34.491 31.596 34.491"></polygon>
                <polygon id="Path" fill="#FFFFFF" fill-rule="nonzero" points="35.805 31.463 36.434 31.463 36.434 34.491 35.805 34.491"></polygon>
                <polygon id="Path" fill="#FFFFFF" fill-rule="nonzero" points="37.482 31.463 38.111 31.463 38.111 33.996 39.958 33.996 39.958 34.496 37.482 34.496"></polygon>
                <polygon id="Path" fill="#FFFFFF" fill-rule="nonzero" points="41.1 31.939 39.957 31.939 39.957 31.463 42.871 31.463 42.871 31.939 41.728 31.939 41.728 34.491 41.099 34.491"></polygon>
                <path d="M43.443,32.987 C43.443,32.13 43.943,31.387 45.233,31.387 C46.509,31.387 47.023,32.13 47.023,32.987 C47.023,33.844 46.523,34.587 45.233,34.587 C43.943,34.587 43.443,33.825 43.443,32.987 Z M46.338,32.987 C46.338,32.7647 46.2721,32.5474 46.1486,32.3625 C46.0251,32.1777 45.8495,32.0336 45.6441,31.9485 C45.4387,31.8635 45.2127,31.8412 44.9947,31.8846 C44.7767,31.928 44.5764,32.035 44.4192,32.1922 C44.262,32.3494 44.155,32.5497 44.1116,32.7677 C44.0682,32.9858 44.0905,33.2117 44.1756,33.4171 C44.2606,33.6225 44.4047,33.7981 44.5895,33.9216 C44.7744,34.0451 44.9917,34.111 45.214,34.111 C45.3648,34.1238 45.5166,34.1034 45.6588,34.0515 C45.8009,33.9995 45.93,33.9171 46.0371,33.8101 C46.1441,33.7031 46.2265,33.5739 46.2785,33.4318 C46.3304,33.2896 46.3507,33.1378 46.338,32.987 Z" id="Shape" fill="#FFFFFF" fill-rule="nonzero"></path>
                <polygon id="Path" fill="#FFFFFF" fill-rule="nonzero" points="47.88 31.463 48.604 31.463 50.413 33.729 50.413 31.463 51.022 31.463 51.022 34.491 50.298 34.491 48.489 32.225 48.489 34.491 47.88 34.491"></polygon>
            </g>
        </g>
    </g>
</svg>